<?xml version="1.0" encoding="UTF-8" standalone="no"?>
<!-- Created with Inkscape (http://www.inkscape.org/) -->

<svg
   width="100%"
   height="100%"
   viewBox="0 0 270.93333 270.93334"
   version="1.1"
   id="svg5"
   inkscape:version="1.1 (c68e22c387, 2021-05-23)"
   sodipodi:docname="favicon.svg"
   xmlns:inkscape="http://www.inkscape.org/namespaces/inkscape"
   xmlns:sodipodi="http://sodipodi.sourceforge.net/DTD/sodipodi-0.dtd"
   xmlns="http://www.w3.org/2000/svg"
   xmlns:svg="http://www.w3.org/2000/svg">
  <sodipodi:namedview
     id="namedview7"
     pagecolor="#ffffff"
     bordercolor="#666666"
     borderopacity="1.0"
     inkscape:pageshadow="2"
     inkscape:pageopacity="0.0"
     inkscape:pagecheckerboard="0"
     inkscape:document-units="mm"
     showgrid="false"
     width="1024mm"
     units="px"
     inkscape:zoom="0.32756266"
     inkscape:cx="825.7962"
     inkscape:cy="657.88939"
     inkscape:window-width="1366"
     inkscape:window-height="705"
     inkscape:window-x="-8"
     inkscape:window-y="-8"
     inkscape:window-maximized="1"
     inkscape:current-layer="layer1" />
  <defs
     id="defs2" />
  <g
     inkscape:label="Camada 1"
     inkscape:groupmode="layer"
     id="layer1"
     style="display:inline">
    <circle
       style="fill:#ca712d;fill-opacity:1;stroke-width:0.441929"
       id="path1828"
       cx="135.46666"
       cy="135.46666"
       r="135.46666" />
    <rect
       style="fill:#ca712d;fill-opacity:1;stroke-width:0.263738"
       id="rect57973"
       width="270.93332"
       height="270.93332"
       x="0"
       y="0" />
    <path
       style="fill:#000000;stroke-width:1.52643"
       d="m 361.53222,680.67969 c 11.33334,-3.10682 35.80955,-4.70012 48.74885,-2.18351 3.44578,-89.97617 12.09471,-196.62127 25.34447,-287.23431 23.89433,-6.13389 37.06482,-6.14634 68.99516,-4.24665 -0.26347,-21.08642 -0.007,-35.8613 3.41177,-59.80056 3.09031,2.05982 9.09121,6.44955 11.87584,8.56441 -2.88359,49.46174 -6.60858,87.94687 -9.47379,121.38059 -2.43946,-0.0892 -7.26056,-0.57639 -9.6437,-0.62409 -10.27162,103.61949 -20.717,204.27417 -27.23567,287.10038 -18.44539,0.74578 -31.59465,1.84894 -47.67284,2.77462 -21.65545,-22.15021 -42.72465,-44.61579 -64.35009,-65.73088 z"
       id="path1102"
       sodipodi:nodetypes="ccccccccccc"
       transform="scale(0.26458333)" />
    <path
       style="fill:#000000;fill-opacity:1;stroke-width:1.52643"
       d="m 317.6805,399.71252 c 19.39091,-3.04672 48.68497,-5.19121 69.70029,-4.94951 -0.27778,17.06155 -4.11953,50.24574 -7.1763,65.89718 -6.51451,-6.51451 -55.91956,-54.34325 -62.52399,-60.94767 z"
       id="path1180"
       transform="scale(0.26458333)"
       sodipodi:nodetypes="cccc" />
    <path
       style="fill:#000000;stroke-width:1.52643"
       d="m 432.65106,913.44182 c -13.33183,-11.84245 -22.14827,-19.80991 -34.93098,-33.19957 16.44012,-0.97045 32.38517,0.0684 51.1679,3.31172 14.57792,-17.33367 35.5352,-42.24604 51.05701,-57.48394 21.23616,-6.61775 31.08669,-8.91267 54.9111,-12.50638 22.24339,3.88736 43.96253,15.40132 71.71825,24.49673 16.4893,-10.19328 35.74649,-22.67885 47.98376,-28.06281 -1.08614,-22.09377 1.76511,-47.75037 5.24101,-64.86469 -4.41645,-4.32472 -11.20066,-11.80948 -20.84855,-29.44798 14.30089,14.72365 32.31644,25.83171 54.13476,64.15413 1.5759,4.99142 -1.082,57.77236 -4.061,63.59009 -3.07134,6.47721 -41.11575,28.54147 -48.53131,28.54147 -26.34453,-6.46451 -55.9696,-20.65535 -71.36025,-25.69319 -19.36973,5.31934 -35.70353,8.83699 -53.23874,12.61245 -17.66055,18.92074 -35.63156,41.58688 -52.09564,58.11029 -17.50995,1.0304 -41.14958,-1.79723 -51.14732,-3.55832 z"
       id="path638"
       sodipodi:nodetypes="cccccccccccccccc"
       transform="scale(0.26458333)" />
    <path
       style="fill:#000000;stroke-width:1.52643"
       d="m 744.39974,721.07786 c 10.8724,-12.85025 26.24657,-31.55664 37.57831,-41.75145 22.65587,-7.18372 52.16756,-19.00093 75.98284,-22.26434 5.50617,-14.59597 18.985,-37.37552 23.72248,-49.28254 -14.09658,-13.51368 -24.65062,-42.57226 -35.70272,-64.47891 1.00282,-12.7913 3.9163,-28.68363 7.65337,-52.8322 12.87387,-21.82298 32.74284,-45.85278 51.80384,-64.02329 -4.50009,-18.04754 -4.67079,-32.24976 -7.89216,-49.44728 11.45882,10.85204 24.70651,23.07912 33.72775,32.63113 2.56402,11.05448 9.11236,41.78638 9.16525,47.63572 -18.7559,26.76295 -33.9301,41.44512 -52.63726,66.05029 -1.72488,15.30523 -5.55224,39.31129 -7.77003,53.80506 11.69718,21.2919 20.44181,34.26908 35.42792,63.16243 -5.25106,15.29014 -14.70701,34.92819 -22.98679,48.88953 -20.47763,6.74839 -42.11764,13.62984 -76.01401,23.36035 -14.96465,15.70017 -21.76749,23.39814 -37.68247,40.04005 -12.44517,-9.68696 -23.14265,-20.99051 -34.37632,-31.49455 z"
       id="path677"
       sodipodi:nodetypes="ccccccccccccccccc"
       transform="scale(0.26458333)" />
    <path
       style="fill:#000000;stroke-width:1.52643"
       d="m 825.98931,343.35034 c -8.96122,-9.35316 -18.56862,-25.05368 -23.2059,-43.23908 -2.17693,-22.97267 0.86091,-50.40056 6.96277,-78.60842 11.94666,10.99207 23.07771,21.19275 34.74481,32.34092 -1.25751,26.18588 -5.30822,61.73164 -7.07659,78.26594 2.6776,6.69671 6.27039,13.33801 9.68956,19.16861 -6.42421,-2.20503 -16.90267,-4.39146 -21.11465,-7.92797 z"
       id="path716"
       transform="scale(0.26458333)"
       sodipodi:nodetypes="ccccccc" />
    <path
       style="fill:#000000;stroke-width:1.52643"
       d="m 222.71951,425.96813 c 40.90373,-87.77887 93.98743,-146.21915 176.7179,-171.41922 60.59529,-20.74343 122.14994,-24.44915 168.55105,-4.9456 2.91403,-17.88885 8.6459,-39.64328 16.56407,-52.00944 -9.08372,-12.20735 -17.74145,-33.24192 -28.16606,-57.26864 15.00403,15.10069 27.10091,25.86679 34.23086,32.90124 12.35922,21.57235 24.21905,44.97309 27.87827,55.73736 -2.00445,9.36296 -11.47734,41.14108 -17.30952,54.08267 -76.16887,-26.58954 -184.4594,-0.80152 -251.69916,54.9058 -9.38746,0.49102 -17.22098,0.8329 -26.60844,1.32393 -0.93012,9.95058 -1.43019,17.48561 -2.2064,27.0762 -49.48472,51.71579 -74.82024,110.68795 -77.5186,162.17241 -2.59888,43.5669 -3.64321,60.32637 3.22053,89.32991 11.50383,44.83191 23.05014,70.6631 43.50774,100.10156 -33.98033,-28.5836 -55.19072,-63.5211 -68.80606,-95.90163 -23.50292,-64.7074 -19.19583,-133.26267 1.64382,-196.08655 z"
       id="path755"
       sodipodi:nodetypes="cccccccccccccccc"
       transform="scale(0.26458333)" />
    <path
       style="fill:#000000;stroke-width:1.52643"
       d="m 664.56726,268.55014 c -7.41621,-7.05578 -29.23296,-26.79109 -33.62187,-32.72344 30.45879,5.34585 82.89572,32.42439 107.85392,68.00215 -22.34495,-14.04728 -57.45349,-28.59574 -74.23205,-35.27871 z"
       id="path794"
       transform="scale(0.26458333)"
       sodipodi:nodetypes="cccc" />
    <path
       style="fill:#000000;fill-opacity:1;stroke-width:1.52643"
       d="m 232.56909,812.52581 c 21.81407,-7.0098 42.15641,-12.41235 72.94754,-18.46683 11.76493,2.92857 37.01419,13.5084 47.70185,19.2865 4.78932,4.33517 11.13312,16.60106 13.89728,24.18756 -10.18169,-3.64609 -20.1988,-8.10148 -26.43666,-10.91782 -18.66191,5.61413 -45.04192,12.74517 -70.5725,18.96541 -15.20721,-12.63588 -23.18397,-19.91527 -37.53751,-33.05482 z"
       id="path833"
       sodipodi:nodetypes="ccccccc"
       transform="scale(0.26458333)" />
    <path
       style="fill:#000000;stroke-width:1.52643"
       d="m 147.47465,658.21626 c -10.87462,-10.78378 -21.69223,-21.17383 -33.13436,-32.84022 18.99688,7.00402 41.57111,11.83039 59.62082,23.00914 4.48664,7.36767 11.28078,18.46656 13.32278,24.7246 -4.31915,-0.96982 -30.69215,-10.91198 -39.80924,-14.89352 z"
       id="path872"
       transform="scale(0.26458333)"
       sodipodi:nodetypes="ccccc" />
    <path
       style="fill:#000000;stroke-width:1.52643"
       d="m 492.02356,672.50698 c 16.04322,-1.65138 33.31107,-2.31876 48.47561,-2.60698 2.62001,-51.89003 4.22046,-108.31832 10.51929,-147.32279 34.47633,-4.22047 74.22805,-7.63181 101.93321,-6.89008 -1.38054,-21.48706 -0.86344,-37.91615 4.4766,-60.85566 21.93272,23.31741 39.91478,41.17373 62.79804,64.94056 -1.51156,15.89528 -5.30048,45.13979 -6.53497,61.05899 -30.32197,2.34023 -66.53639,4.6069 -100.51368,6.8748 -3.66053,42.74008 -9.58013,106.68205 -10.92704,139.27715 -2.19931,1.44677 -8.09902,6.34916 -15.1969,10.26462 -12.56566,0.19253 -20.45423,0.2327 -33.72446,0.2327 -20.16791,-20.24416 -41.21652,-44.06465 -61.3057,-64.97331 z"
       id="path1063"
       transform="scale(0.26458333)"
       sodipodi:nodetypes="cccccccccccc" />
    <path
       style="fill:#000000;stroke-width:1.52643"
       d="m 556.78453,461.08525 c 1.33766,-25.13404 4.19072,-52.14276 6.69248,-78.84173 39.49045,-3.32925 73.30793,-6.24822 115.63802,-6.75897 -2.13684,-20.21081 -1.44413,-39.03903 3.03975,-60.7989 20.82446,21.61964 42.5501,42.30968 64.22528,63.06393 -1.25398,17.8057 -3.25875,42.58899 -5.0094,60.61759 -40.5643,2.41883 -75.5949,6.13052 -113.82924,9.45697 -0.23677,3.06914 -0.52548,5.79356 -0.8269,9.11392 -13.99077,0.94237 -58.00462,4.11347 -69.92999,4.14719 z"
       id="path1141"
       transform="scale(0.26458333)"
       sodipodi:nodetypes="ccccccccc" />
    <path
       style="fill:#ffffff;fill-opacity:1;stroke-width:1.52643"
       d="m 700.67264,680.62497 c 74.80096,-74.80097 95.5178,-138.53325 95.5178,-218.23783 0,-83.65726 -48.56612,-195.29641 -165.24505,-226.56044 -2.07533,-2.17022 -3.15437,-3.41323 -4.94407,-5.57004 1.32221,-3.0028 22.20139,-46.116 23.64442,-47.76526 15.78887,6.58189 23.59204,10.01985 43.96662,18.23356 26.03362,-7.30618 44.37117,-13.1773 70.70107,-19.9174 16.2758,13.19686 28.37783,24.16673 45.43275,40.69528 -2.15495,28.5002 -4.95232,55.31482 -6.96277,78.60842 8.8094,15.44153 16.0166,29.54795 23.2059,43.23908 20.50999,7.51352 43.62217,16.04462 61.53289,23.81452 2.9948,2.67829 5.82522,5.61027 10.0235,9.83299 2.81307,12.88355 7.3203,32.57328 7.89216,49.44728 -16.21767,21.16044 -37.65685,46.67962 -51.80384,64.02329 -2.40007,19.81408 -3.4579,27.92911 -7.65337,52.8322 13.46658,24.38284 19.2048,35.80398 35.70272,64.47891 -2.48044,9.54102 -12.56289,29.95357 -23.72248,49.28254 -30.73886,9.25433 -45.13588,13.47472 -75.98284,22.26434 -15.0232,17.16759 -23.11813,26.09641 -37.57831,41.75145 -15.05274,-13.64044 -33.30364,-30.02943 -43.7271,-40.45289 z"
       id="path525"
       sodipodi:nodetypes="cccccccccccccccccccc"
       transform="scale(0.26458333)" />
    <path
       style="fill:#ffffff;fill-opacity:1;stroke-width:1.52643"
       d="m 361.53222,680.67969 c 7.95331,-104.17739 15.68201,-200.8032 25.84857,-285.91668 -26.06012,1.43565 -46.83554,3.5892 -69.70029,4.94951 1.51962,-17.94218 3.44169,-45.23266 5.19798,-60.43629 56.65251,-2.803 122.95733,-8.68267 185.15399,-12.06157 -0.0383,1.05883 -2.17508,51.33491 -3.41177,59.80056 -25.8928,1.4841 -38.314,2.95759 -68.99516,4.24665 -10.24376,99.85279 -19.51499,196.14521 -25.34447,287.23431 -8.48386,0.63778 -38.31369,1.91367 -48.74885,2.18351 z"
       id="path408"
       sodipodi:nodetypes="ccccccccc"
       transform="scale(0.26458333)" />
    <path
       style="fill:#ffffff;fill-opacity:1;stroke-width:1.52643"
       d="m 520.56371,326.34884 c 48.30957,-3.11233 99.74033,-6.98086 161.59107,-11.66319 -0.81477,19.61524 -2.04203,41.24811 -3.03975,60.7989 -38.0948,2.10264 -76.56456,4.66932 -115.63802,6.75897 -0.96243,15.0875 -5.02511,58.03209 -6.69248,78.84173 33.12458,-1.86339 62.54727,-3.81333 100.64374,-6.25378 -1.09318,20.36303 -2.67572,41.36152 -4.4766,60.85566 -36.09303,2.36773 -66.38764,4.29715 -101.93321,6.89008 -4.55868,54.91976 -7.22517,101.01142 -10.51929,147.32279 -16.55681,0.78446 -32.15354,1.64217 -48.47561,2.60698 9.67396,-123.89334 19.43563,-230.35332 28.54015,-346.15814 z"
       id="path447"
       sodipodi:nodetypes="ccccccccccc"
       transform="scale(0.26458333)" />
    <path
       style="fill:#ffffff;fill-opacity:1;stroke-width:1.52643"
       d="m 397.72008,880.24225 c -12.54147,-16.26417 -32.29592,-43.57953 -44.5016,-66.89677 -18.3796,-6.51132 -31.32164,-12.85996 -47.70185,-19.2865 -28.31431,8.04394 -50.17881,13.29228 -72.94754,18.46683 -17.81604,-15.15434 -27.16688,-24.28751 -43.11013,-41.75262 2.63171,-25.45637 5.66085,-47.79762 8.65688,-76.88165 -6.04451,-11.94463 -18.32659,-34.42076 -24.15473,-45.50636 -29.02221,-10.87588 -48.20708,-18.27868 -59.62082,-23.00914 -4.38784,-3.74207 -7.30148,-7.12 -9.59484,-9.46333 -3.48752,-11.9245 -8.021524,-32.47839 -7.972513,-51.66138 19.956953,-24.53394 45.131633,-52.85222 52.045803,-61.58032 2.11714,-17.10529 5.78937,-40.74554 8.46351,-54.44622 -6.1772,-14.9349 -27.85671,-45.69246 -35.29876,-63.25099 4.6879,-15.05295 19.51688,-44.01889 24.55927,-49.5504 11.6022,-4.05187 47.32636,-14.90258 74.78633,-20.98854 20.33814,-21.82331 23.57955,-25.34651 39.84858,-41.94557 3.82436,-29.34845 6.38931,-49.73522 10.24798,-74.81718 12.66239,-10.37638 38.90989,-23.75402 47.85191,-27.76187 29.33017,9.78923 40.10451,14.21609 71.80443,26.85339 14.10278,-3.41698 39.89439,-10.11431 54.54861,-12.47486 20.33393,-23.37072 33.72717,-38.6374 51.48738,-57.57908 15.34097,-0.26643 40.99589,1.41066 50.10839,4.60361 1.79538,1.43617 3.97693,3.83016 9.1601,9.01193 13.3319,23.49442 27.04838,50.80663 28.16606,57.26864 -4.30159,16.5386 -11.83877,38.68147 -16.56407,52.00944 -59.73746,-18.91597 -101.35809,-12.13008 -167.87417,6.56091 -68.05031,21.83286 -112.877,67.16648 -152.94755,125.0837 -31.92458,49.60773 -40.2485,107.84065 -40.41312,153.00102 -1.51619,61.4182 27.80055,130.50056 83.12813,183.70737 48.23505,33.52383 110.66062,56.55397 162.9789,54.68424 76.54048,-6.73902 136.84855,-28.92982 185.954,-73.85714 9.21392,8.13062 11.36832,9.63203 20.13591,16.90149 3.32924,5.12309 20.08657,26.43667 20.84855,29.44798 -1.51699,20.48525 -3.13136,39.9251 -5.24101,64.86469 -14.14686,9.04561 -30.00082,18.72774 -47.98376,28.06281 -19.85136,-4.66562 -53.82389,-18.9373 -71.71825,-24.49673 -18.80066,5.29778 -38.3756,9.16281 -54.9111,12.50638 -20.26591,21.79216 -34.20257,40.17652 -51.05701,57.48394 -22.04577,-0.73716 -29.7724,-1.16766 -51.1679,-3.31172 z"
       id="path486"
       sodipodi:nodetypes="ccccccccccccccccccccccccccccccccccccccc"
       transform="scale(0.26458333)" />
  </g>
</svg>
