<?xml version="1.0" encoding="UTF-8" standalone="no"?>
<svg
   xmlns:dc="http://purl.org/dc/elements/1.1/"
   xmlns:cc="http://creativecommons.org/ns#"
   xmlns:rdf="http://www.w3.org/1999/02/22-rdf-syntax-ns#"
   xmlns:svg="http://www.w3.org/2000/svg"
   xmlns="http://www.w3.org/2000/svg"
   xmlns:xlink="http://www.w3.org/1999/xlink"
   xmlns:sodipodi="http://sodipodi.sourceforge.net/DTD/sodipodi-0.dtd"
   xmlns:inkscape="http://www.inkscape.org/namespaces/inkscape"
   width="300"
   height="300"
   viewBox="0 0 79.374999 79.374999"
   version="1.1"
   id="svg8"
   sodipodi:docname="CTFEvents.svg"
   inkscape:version="1.0.1 (3bc2e813f5, 2020-09-07)">
  <defs
     id="defs2">
    <linearGradient
       inkscape:collect="always"
       id="linearGradient942">
      <stop
         style="stop-color:#2ecc9f;stop-opacity:1"
         offset="0"
         id="stop938" />
      <stop
         style="stop-color:#2fcf78;stop-opacity:1"
         offset="1"
         id="stop940" />
    </linearGradient>
    <linearGradient
       inkscape:collect="always"
       xlink:href="#linearGradient942"
       id="linearGradient944"
       x1="-0.1889881"
       y1="79.563988"
       x2="79.186012"
       y2="0.1889881"
       gradientUnits="userSpaceOnUse"
       gradientTransform="translate(0.1889881,-0.1889881)" />
  </defs>
  <sodipodi:namedview
     id="base"
     pagecolor="#ffffff"
     bordercolor="#666666"
     borderopacity="1.0"
     inkscape:pageopacity="0.0"
     inkscape:pageshadow="2"
     inkscape:zoom="1.4"
     inkscape:cx="315.01378"
     inkscape:cy="80.231518"
     inkscape:document-units="px"
     inkscape:current-layer="layer1"
     inkscape:document-rotation="0"
     showgrid="false"
     units="px"
     inkscape:window-width="1366"
     inkscape:window-height="705"
     inkscape:window-x="-8"
     inkscape:window-y="-8"
     inkscape:window-maximized="1"
     showguides="true"
     inkscape:guide-bbox="true">
    <sodipodi:guide
       position="-62.744046,39.6875"
       orientation="0,-1"
       id="guide26" />
    <sodipodi:guide
       position="39.687499,90.14732"
       orientation="1,0"
       id="guide28" />
  </sodipodi:namedview>
  <metadata
     id="metadata5">
    <rdf:RDF>
      <cc:Work
         rdf:about="">
        <dc:format>image/svg+xml</dc:format>
        <dc:type
           rdf:resource="http://purl.org/dc/dcmitype/StillImage" />
        <dc:title></dc:title>
      </cc:Work>
    </rdf:RDF>
  </metadata>
  <g
     inkscape:label="Layer 1"
     inkscape:groupmode="layer"
     id="layer1">
    <rect
       style="fill:url(#linearGradient944);fill-opacity:1;stroke:none;stroke-width:0.264583"
       id="rect24"
       width="79.375"
       height="79.375"
       x="2.7755576e-17"
       y="-2.7755576e-17" />
    <path
       sodipodi:type="star"
       style="opacity:1;fill:none;fill-opacity:1;stroke:#1a1a1a;stroke-width:2.38125;stroke-miterlimit:4;stroke-dasharray:none"
       id="path968"
       sodipodi:sides="4"
       sodipodi:cx="45.883354"
       sodipodi:cy="16.921359"
       sodipodi:r1="3.2819879"
       sodipodi:r2="2.3207159"
       sodipodi:arg1="1.5707963"
       sodipodi:arg2="2.3561945"
       inkscape:flatsided="true"
       inkscape:rounded="0"
       inkscape:randomized="0"
       d="m 45.883354,20.203346 -3.281988,-3.281988 3.281988,-3.281988 3.281988,3.281988 z" />
    <path
       sodipodi:type="star"
       style="opacity:1;fill:#1a1a1a;fill-opacity:1;stroke:none;stroke-width:0.264583"
       id="path964"
       sodipodi:sides="4"
       sodipodi:cx="14.275138"
       sodipodi:cy="35.970761"
       sodipodi:r1="3.1205397"
       sodipodi:r2="2.2065549"
       sodipodi:arg1="1.5707963"
       sodipodi:arg2="2.3561945"
       inkscape:flatsided="true"
       inkscape:rounded="0"
       inkscape:randomized="0"
       d="m 14.275138,39.0913 -3.12054,-3.12054 3.12054,-3.120539 3.12054,3.120539 z" />
    <path
       sodipodi:type="star"
       style="opacity:1;fill:#1a1a1a;fill-opacity:1;stroke:none;stroke-width:0.264583"
       id="path966"
       sodipodi:sides="4"
       sodipodi:cx="63.55378"
       sodipodi:cy="34.718716"
       sodipodi:r1="3.1226852"
       sodipodi:r2="2.2080719"
       sodipodi:arg1="1.5707963"
       sodipodi:arg2="2.3561945"
       inkscape:flatsided="true"
       inkscape:rounded="0"
       inkscape:randomized="0"
       d="m 63.55378,37.841401 -3.122686,-3.122685 3.122686,-3.122686 3.122685,3.122686 z" />
    <path
       sodipodi:type="star"
       style="opacity:1;fill:none;fill-opacity:1;stroke:#1a1a1a;stroke-width:2.38125;stroke-miterlimit:4;stroke-dasharray:none"
       id="path968-6"
       sodipodi:sides="4"
       sodipodi:cx="19.338455"
       sodipodi:cy="21.996321"
       sodipodi:r1="3.2819879"
       sodipodi:r2="2.3207159"
       sodipodi:arg1="1.5707963"
       sodipodi:arg2="2.3561945"
       inkscape:flatsided="true"
       inkscape:rounded="0"
       inkscape:randomized="0"
       d="m 19.338455,25.278309 -3.281988,-3.281988 3.281988,-3.281988 3.281988,3.281988 z" />
    <path
       sodipodi:type="star"
       style="opacity:1;fill:none;fill-opacity:1;stroke:#1a1a1a;stroke-width:2.38125;stroke-miterlimit:4;stroke-dasharray:none"
       id="path968-7"
       sodipodi:sides="4"
       sodipodi:cx="54.785103"
       sodipodi:cy="62.487654"
       sodipodi:r1="3.2819879"
       sodipodi:r2="2.3207159"
       sodipodi:arg1="1.5707963"
       sodipodi:arg2="2.3561945"
       inkscape:flatsided="true"
       inkscape:rounded="0"
       inkscape:randomized="0"
       d="m 54.785103,65.769644 -3.281988,-3.281988 3.281988,-3.281988 3.281988,3.281988 z" />
    <path
       style="opacity:1;fill:#1a1a1a;fill-opacity:1;stroke:none;stroke-width:0.133635"
       d="m 12.736615,67.742708 c 5.008936,-12.202956 9.06729,-23.109252 13.16128,-33.475357 1.73786,-4.171282 2.39761,-4.310261 7.46309,-3.207233 0.60136,-4.959502 0.47934,-6.838545 -2.69808,-6.949006 -2.24572,0 -2.00673,-0.395322 -2.00673,-4.426652 0,-4.399746 -0.21555,-4.393243 2.20789,-4.393243 9.92516,0.143971 11.02719,10.107507 6.58454,17.802406 1.56507,1.202783 1.86666,1.48969 3.69227,2.795058 1.60845,-1.361641 4.1613,-3.185082 6.49144,-3.788766 -0.33409,-5.298931 1.64249,-7.965377 6.59059,-8.012817 0,-2.634165 0.756768,-4.123179 2.59949,-5.916626 1.488448,-1.438337 4.68719,-1.639274 7.15946,-1.643387 1.64059,0 1.52762,1.277496 1.52762,3.806565 0,2.175573 0.24656,3.750126 -1.41335,3.750126 -3.94107,-0.04354 -1.55511,-0.07779 -2.90087,4.55109 -0.508578,1.737836 -2.38999,3.150101 -5.06903,3.150101 1.2843,2.082123 -0.76381,4.902959 -2.26306,5.759826 -3.2114,1.401278 -6.53756,1.943754 -8.50272,2.47261 1.01547,1.015472 1.3004,1.64981 2.23195,2.581365 7.68704,-4.29746 18.95284,-2.090714 20.10678,5.750349 0.0895,1.005556 0.45786,2.903901 -0.46816,3.392807 -0.37267,0.176845 -1.0931,0.121187 -3.35562,0.121187 -3.23181,0 -4.08691,0.329662 -4.08691,-2.211516 0,-1.393709 -3.68655,-1.379773 -9.01448,-1.379773 1.18684,5.968113 0.71266,6.06063 -5.01937,8.138139 -11.93377,4.211149 -17.91454,6.46357 -33.01802,11.332747 z m 35.66663,-14.765493 c 1.314261,-0.758789 0.42831,-3.07713 -0.323,-4.294011 -2.42751,0 -5.34942,1.7421 -6.56848,0.523034 -1.46496,-1.464953 2.39186,-4.243248 3.77791,-5.323609 -0.74728,-0.810929 -1.49489,-1.784705 -2.59361,-2.883425 -1.51548,0.723181 -4.69988,4.404064 -6.08785,3.01609 -1.51961,-1.519609 2.05408,-4.829621 2.8522,-6.202122 -1.30898,-1.060934 -1.84606,-1.445257 -3.30339,-2.430573 -0.89372,0.778 -2.47653,3.347236 -3.62834,2.467508 -1.35485,-1.165889 0.052,-2.957348 0.32954,-3.993213 -0.921039,-0.72361 -4.08501,-1.607715 -4.08501,-0.206169 0,8.647913 15.931498,21.461838 19.63003,19.32649 z m -1.69833,-6.645241 c 5.4288,-1.198889 15.6284,-1.481186 15.6284,3.015002 1.77026,0 3.02125,-0.02657 3.02125,-0.02657 -1.45457,-7.607023 -13.26996,-7.741098 -18.64965,-2.988432 z m 1.65444,-9.656331 c 1.887599,-0.413329 4.46348,-0.684439 5.46629,-2.600738 0.81099,-1.707315 -2.00903,-3.013656 -0.9672,-4.554769 0.65732,-1.138515 3.29268,0.237996 5.17779,-0.848379 1.23904,-0.742945 0.92294,-2.089833 0.92294,-2.996084 -0.0417,-2.254457 1.09961,-4.083987 3.76134,-4.108862 l -0.0118,-2.498631 c -7.89694,0 -5.42231,6.074339 -6.52414,7.223413 -1.24522,1.245218 -6.14769,-1.571455 -6.14769,4.7263 0.177479,3.324844 -0.277157,2.294239 -4.04665,4.432603 -1.00789,0.624068 -2.91499,1.681069 -3.53713,3.070317 2.68422,-0.998397 4.20897,-1.47103 5.90625,-1.84517 z M 31.061275,17.679938 v 3.825295 c 5.55769,1.053129 5.09136,3.782049 5.08405,8.405978 3.28479,-5.689427 0.90593,-12.231273 -5.08405,-12.231273 z"
       id="path948-6"
       sodipodi:nodetypes="ccccsccccccccccccccccscccccccccccccccccccccccccccccccccccc" />
  </g>
</svg>
