<?xml version="1.0" encoding="utf-8"?>
<!-- Generator: Adobe Illustrator 15.1.0, SVG Export Plug-In . SVG Version: 6.00 Build 0)  -->
<!DOCTYPE svg PUBLIC "-//W3C//DTD SVG 1.1//EN" "http://www.w3.org/Graphics/SVG/1.1/DTD/svg11.dtd">
<svg version="1.1" id="Layer_1" xmlns="http://www.w3.org/2000/svg" xmlns:xlink="http://www.w3.org/1999/xlink" x="0px" y="0px"
	 width="500px" height="500px" viewBox="0 0 400 400" enable-background="new 0 0 400 400" xml:space="preserve">
<g id="svg3428_copy" xmlns:svg="http://www.w3.org/2000/svg" xmlns:inkscape="http://www.inkscape.org/namespaces/inkscape">
	<linearGradient id="SVGID_1_" gradientUnits="userSpaceOnUse" x1="240.5625" y1="765.2695" x2="161.3222" y2="416.4927" gradientTransform="matrix(1 0 0 1 0 -391)">
		<stop offset="0" style="stop-color:#000"/>
		<stop offset="1" style="stop-color:#000"/>
	</linearGradient>
	<path fill="url(#SVGID_1_)" d="M245.314,26.641c77.276,19.735,134.42,89.813,134.42,173.24c0,1.904-0.04,3.799-0.102,5.688
		l-120.256-17.105c-3.521-18.121-15.257-33.295-31.177-41.512L245.314,26.641z M148.013,172.62
		c8.216-15.92,23.391-27.655,41.511-31.176l17.107-120.258c-1.89-0.059-3.783-0.099-5.688-0.099
		c-83.425,0-153.502,57.14-173.238,134.418L148.013,172.62z M173.682,252.811c-15.919-8.217-27.655-23.393-31.175-41.512
		L22.25,194.192c-0.059,1.89-0.099,3.785-0.099,5.689c0,83.424,57.14,153.501,134.417,173.238L173.682,252.811z M253.872,227.141
		c-8.218,15.92-23.392,27.654-41.513,31.176l-17.106,120.26c1.89,0.059,3.785,0.1,5.688,0.1c83.426,0,153.504-57.143,173.237-134.42
		L253.872,227.141z"/>
</g>
</svg>
