<?xml version="1.0" encoding="UTF-8" standalone="no"?>
<svg
   xmlns:dc="http://purl.org/dc/elements/1.1/"
   xmlns:cc="http://creativecommons.org/ns#"
   xmlns:rdf="http://www.w3.org/1999/02/22-rdf-syntax-ns#"
   xmlns:svg="http://www.w3.org/2000/svg"
   xmlns="http://www.w3.org/2000/svg"
   xmlns:sodipodi="http://sodipodi.sourceforge.net/DTD/sodipodi-0.dtd"
   xmlns:inkscape="http://www.inkscape.org/namespaces/inkscape"
   width="450"
   height="1000"
   viewBox="0 0 119.06254 264.58347"
   version="1.1"
   id="svg8"
   inkscape:version="1.0.1 (3bc2e813f5, 2020-09-07)"
   sodipodi:docname="engineer_holding.svg">
  <defs
     id="defs2" />
  <sodipodi:namedview
     id="base"
     pagecolor="#ffffff"
     bordercolor="#666666"
     borderopacity="1.0"
     inkscape:pageopacity="0.0"
     inkscape:pageshadow="2"
     inkscape:zoom="0.35"
     inkscape:cx="754.3795"
     inkscape:cy="566.33652"
     inkscape:document-units="mm"
     inkscape:current-layer="layer1"
     inkscape:document-rotation="0"
     showgrid="false"
     units="px"
     inkscape:window-width="1366"
     inkscape:window-height="705"
     inkscape:window-x="-8"
     inkscape:window-y="-8"
     inkscape:window-maximized="1" />
  <metadata
     id="metadata5">
    <rdf:RDF>
      <cc:Work
         rdf:about="">
        <dc:format>image/svg+xml</dc:format>
        <dc:type
           rdf:resource="http://purl.org/dc/dcmitype/StillImage" />
        <dc:title></dc:title>
      </cc:Work>
    </rdf:RDF>
  </metadata>
  <g
     inkscape:label="Layer 1"
     inkscape:groupmode="layer"
     id="layer1">
    <path
       style="fill:#000000;stroke-width:0.264583"
       d="m 89.977468,252.94716 c -2.313638,-0.86861 -2.375278,-0.91445 -3.031265,-2.25422 -0.749914,-1.53162 -0.768494,-1.53718 -3.712636,-1.11161 -2.043041,0.29531 -4.846353,-0.2458 -5.77716,-1.11514 -0.806224,-0.75298 -0.847454,-2.69144 -0.0662,-3.10959 0.476747,-0.25514 0.529167,-0.55399 0.529167,-3.01646 0,-2.02374 0.18215,-3.51516 0.701707,-5.74538 0.738437,-3.16979 0.926554,-6.3028 0.540257,-8.99747 l -0.213237,-1.48744 -2.035714,-0.31373 c -1.119631,-0.17254 -2.437865,-0.3825 -2.929395,-0.46657 l -0.893691,-0.15285 0.182161,-4.66057 c 0.587629,-15.03463 1.595557,-21.89371 4.689502,-31.91273 0.931457,-3.01629 0.928427,-2.97976 0.49874,-6.00677 l -0.31955,-2.25122 -2.173551,-1.60984 c -1.195444,-0.8854 -2.81699,-2.36112 -3.603421,-3.27937 -1.951623,-2.27875 -6.397781,-6.82895 -6.672797,-6.82895 -0.123037,0 -2.734696,1.38783 -5.803686,3.08407 -3.068989,1.69624 -8.452675,4.44153 -11.963746,6.10065 -3.511074,1.65912 -6.698049,3.31708 -7.082171,3.68436 -0.384122,0.36729 -2.10344,3.41051 -3.820707,6.76272 l -3.122306,6.09493 -1.206375,0.50228 c -0.663506,0.27626 -1.400424,0.58973 -1.637596,0.69661 -0.372645,0.16792 -0.20323,0.72472 1.247147,4.09889 1.805112,4.19941 1.984476,5.09205 3.388831,16.86526 l 0.362948,3.04271 -1.024284,3.96875 c -1.01835,3.94576 -1.031582,3.9753 -2.283852,5.09977 -1.421122,1.27609 -1.418701,1.25683 -0.578493,4.6016 0.280252,1.11565 0.510858,2.84206 0.512461,3.83646 0.0043,2.64859 0.252294,3.83946 0.831189,3.99085 0.589195,0.15408 0.707146,2.60503 0.158086,3.28492 -0.849617,1.05206 -4.512562,1.66735 -6.683052,1.12259 -0.462748,-0.11614 -0.612396,0.0963 -1.061917,1.50777 l -0.52326,1.64297 -2.116667,1.14528 c -2.87351,1.55478 -7.169839,2.92935 -9.657291,3.08975 -2.859021,0.18438 -6.5604995,-0.29426 -7.4687745,-0.96578 -0.9378527,-0.69338 -1.0467017,-2.45826 -0.198932,-3.22548 0.346833,-0.31388 0.516767,-0.76934 0.484202,-1.29778 -0.08674,-1.40757 0.935718,-2.97194 2.441001,-3.73472 0.733998,-0.37195 2.9828685,-1.81412 4.9974925,-3.20483 l 3.662951,-2.52857 0.924651,-2.4199 c 0.508558,-1.33095 1.001184,-2.60795 1.094725,-2.83778 0.123931,-0.30451 -0.105005,-0.54193 -0.843822,-0.87509 l -1.013894,-0.4572 -0.744208,-3.75513 c -0.409314,-2.06531 -1.023354,-4.48499 -1.364533,-5.37705 -0.655455,-1.71379 -1.549951,-7.35898 -1.896754,-11.97047 l -0.206397,-2.74448 -1.181515,-0.43469 -1.181514,-0.43468 -0.802861,-4.01221 c -0.6520495,-3.25856 -0.9271085,-4.14396 -1.4643175,-4.71353 -0.617833,-0.65506 -0.631003,-0.72358 -0.19969,-1.03897 0.407099,-0.29768 0.427648,-0.50756 0.173565,-1.77274 -0.292564,-1.45679 0.711781,-5.34101 1.7471535,-6.75698 0.290586,-0.3974 0.192334,-0.67885 -0.6911435,-1.97984 -1.251472,-1.84289 -1.256453,-1.60689 0.059,-2.79533 l 1.0888885,-0.98375 -0.149762,-1.59527 c -0.08237,-0.87739 0.0659,-4.80996 0.329484,-8.73905 l 0.479298,-7.14379 2.069294,-5.55628 c 1.138112,-3.05596 2.362445,-5.9132 2.720741,-6.34944 l 0.651447,-0.79315 -1.023099,-0.28706 c -1.016182,-0.28511 -1.959027,-1.35725 -1.962068,-2.23112 -8.73e-4,-0.24872 -0.527411,-0.5712 -1.390455,-0.85158 l -1.389063,-0.45127 1.496175,0.10225 c 1.354289,0.0926 1.510764,0.0479 1.650033,-0.47135 0.245941,-0.91689 0.22059,-0.94787 -1.034038,-1.26379 -1.697875,-0.42754 -1.789969,-0.82826 -0.14005,-0.60939 1.254607,0.16644 1.43478,0.11747 2.38888,-0.64927 1.053315,-0.84648 2.939058,-1.16801 3.311917,-0.5647 0.230251,0.37255 0.661457,0.32943 0.661466,-0.0661 4e-6,-0.1819 0.42949,-0.67342 0.954412,-1.09226 l 0.954405,-0.76152 -1.667703,-0.89105 c -2.167608,-1.15814 -2.032275,-0.97096 -2.773435,-3.83608 -0.980573,-3.79062 -1.481758,-7.50576 -1.283703,-9.51572 0.138973,-1.41036 0.03872,-2.28193 -0.518441,-4.50712 -1.439002,-5.74712 -1.641626,-6.16833 -4.833911,-10.04865 l -2.9165765,-3.54519 -1.015446,-4.36565 c -0.758542,-3.26116 -1.2462617,-4.76729 -1.9277717,-5.95317 -0.50178,-0.873117 -1.325199,-3.016257 -1.829822,-4.762517 L 1.9356293,92.559158 2.1028154,86.473701 c 0.2234907,-8.134934 0.3821797,-8.624184 3.2099644,-9.896704 2.3684697,-1.06581 8.3225052,-6.378387 8.6006282,-7.674024 0.350553,-1.63306 4.010431,-5.915307 5.466223,-6.395757 0.897089,-0.29607 1.014671,-0.69534 0.315731,-1.07212 -0.20962,-0.113 -4.482664,-0.80992 -9.495654,-1.54871 -5.0129872,-0.7388 -9.1479152,-1.376657 -9.1887282,-1.417469 -0.04081,-0.04082 0.03573,-3.162403 0.1701077,-6.936862 0.134373,-3.774461 0.3272851,-10.106483 0.4286931,-14.071158 0.1393867,-5.449465 0.2692187,-7.278913 0.5320498,-7.497043 0.2587587,-0.214752 0.2744317,-0.405813 0.06129,-0.747115 C 1.7117233,28.42989 2.3287131,16.140784 2.9388428,14.562725 3.6783858,12.649948 10.801486,5.9076864 12.081907,5.9084974 c 0.777158,5.03e-4 13.105046,1.329856 15.99797,1.725122 l 1.092718,0.149301 0.179123,-1.26822 C 29.615225,4.649017 29.745556,4.329478 30.175699,4.49454 c 0.238816,0.09164 0.383331,-0.0167 0.383331,-0.287394 0,-1.097398 1.344706,-2.5325401 2.372948,-2.5325401 0.37637,0 0.969129,-0.1995 1.317244,-0.44332 0.644935,-0.45172702 5.774859,-0.208287 9.272637,0.440038 1.246653,0.231072 2.538423,1.4015471 2.700634,2.4470491 0.05373,0.346299 0.507603,0.661041 1.409557,0.977466 0.731671,0.256686 1.862765,0.8031144 2.513542,1.2142854 3.60618,2.278441 4.824589,2.599112 12.031146,3.166459 2.910416,0.229127 5.609833,0.479844 5.998704,0.5571476 0.588008,0.116889 0.721638,0.03755 0.79375,-0.4712656 0.07235,-0.510484 0.245052,-0.611818 1.042702,-0.611818 0.996715,0 1.200999,-0.190033 2.698311,-2.510049 0.913902,-1.4160474 1.428424,-1.4875484 6.724553,-0.9344934 4.507983,0.4707504 4.730253,0.5213354 5.448967,1.2400524 0.528587,0.528592 1.014034,0.749281 1.648171,0.749281 1.348504,0 1.807911,1.058903 1.757391,4.0506066 -0.0216,1.281948 -0.10051,2.429752 -0.17524,2.550676 -0.165457,0.26772 0.676937,0.418443 4.621966,0.826972 3.63551,0.376476 14.473087,2.69249 14.957977,3.196556 0.86401,0.898182 4.62115,10.526922 4.62115,11.843007 0,1.55816 -3.04852,13.72171 -3.59052,14.326108 -0.23369,0.260593 -0.2782,0.506524 -0.12025,0.664467 0.22066,0.220662 -1.0985,5.592479 -6.24887,25.446349 -0.52581,2.02692 -0.81041,2.70996 -1.12663,2.70394 -0.23272,-0.004 -2.000687,-0.22256 -3.928817,-0.48471 L 93.79434,72.14277 v 0.54741 c 0,0.81274 -3.070788,5.766367 -4.924096,7.943284 -1.353714,1.59009 -2.171768,2.23028 -5.027053,3.93407 -3.268809,1.950537 -3.539929,2.181627 -6.537434,5.572097 -1.719961,1.945437 -4.894791,5.290667 -7.05518,7.433832 l -3.92798,3.896667 2.119733,6.09437 2.119731,6.09436 2.091192,2.64526 c 1.150157,1.45489 2.091189,2.72219 2.091189,2.81623 0,0.094 -0.535777,0.78345 -1.190621,1.53204 -1.378493,1.57583 -1.410129,1.67256 -0.546997,1.67256 0.419978,0 0.704464,0.19167 0.818697,0.55159 0.13524,0.42611 0.319511,0.51534 0.809991,0.39224 0.528837,-0.13273 1.242431,0.35521 4.270879,2.9203 1.999768,1.69381 3.773389,3.13241 3.941376,3.19687 0.16799,0.0645 2.610395,-0.5034 5.42757,-1.26191 2.817165,-0.75851 5.752843,-1.50156 6.523733,-1.65123 l 1.401603,-0.27212 4.683777,4.84421 c 4.17951,4.32262 9.25289,10.76322 12.07367,15.32736 0.11257,0.18215 -0.36409,0.91593 -1.16236,1.78938 -1.55433,1.70069 -11.911557,11.47204 -12.152717,11.46527 -0.0881,-0.002 -2.27844,-1.55029 -4.867413,-3.4396 -2.588964,-1.88931 -4.754852,-3.4351 -4.813072,-3.4351 -0.0582,0 0.939264,1.69665 2.216638,3.77033 1.446554,2.34831 3.005994,5.36955 4.134707,8.01049 1.66943,3.90613 1.8969,4.29321 2.88744,4.91355 1.049207,0.65707 1.108247,0.77544 2.438017,4.88802 l 1.36276,4.21463 -0.21877,4.10106 c -0.12032,2.25559 -0.22754,4.58129 -0.23828,5.16822 -0.0178,0.97097 -0.25418,1.32372 -2.623397,3.91409 -3.3781,3.69346 -3.26257,3.09948 -2.47901,12.74593 l 0.62325,7.67291 -0.86688,3.70417 c -0.70919,3.03037 -0.89316,4.44953 -1.01132,7.80172 l -0.14443,4.09755 -2.283893,0.5005 -2.283891,0.5005 -0.18323,2.10047 -0.183217,2.10048 2.018178,4.0171 2.01819,4.0171 3.359333,1.87516 c 2.961287,1.65297 3.578807,1.89749 5.211427,2.06356 2.34615,0.23865 3.83646,1.442 3.83646,3.09775 0,0.80781 0.10872,1.00324 0.63103,1.13433 0.59544,0.14945 1.28318,2.30631 0.86783,2.72166 -0.33088,0.33087 -10.214627,1.67449 -13.272807,1.80433 -3.41687,0.14507 -3.45514,0.14019 -5.801225,-0.74061 z M 12.748104,178.89645 c -0.08446,-0.21107 -0.147157,-0.14838 -0.159853,0.15985 -0.01149,0.27891 0.05105,0.43519 0.138965,0.34727 0.08792,-0.0879 0.09732,-0.31613 0.02089,-0.50712 z m 7.076212,-17.80272 c 2.318344,-5.12651 1.929859,-4.69665 4.816566,-5.32956 2.519508,-0.5524 2.456147,-0.47979 1.416205,-1.62294 -0.631519,-0.6942 -0.984544,-0.8599 -1.831947,-0.8599 -0.995254,0 -1.078011,-0.064 -1.596029,-1.23512 l -0.546347,-1.23512 -1.406149,2.23961 c -0.812504,1.2941 -2.264748,4.35675 -3.439887,7.25442 -2.013971,4.96608 -2.0362,5.04696 -2.287214,8.32213 -0.428541,5.5915 -0.407865,5.6083 1.302408,1.05834 0.847846,-2.25559 2.455423,-6.12192 3.572394,-8.59186 z M 49.851564,10.044767 C 49.443029,9.6873364 48.550696,9.3708224 48.550696,9.5833444 c 0,0.13997 0.208359,0.308942 0.46302,0.375492 0.638297,0.1668036 0.969058,0.2007266 0.837848,0.08593 z"
       id="path38" />
  </g>
</svg>
