<?xml version="1.0" encoding="UTF-8" standalone="no"?>
<svg
   xmlns:dc="http://purl.org/dc/elements/1.1/"
   xmlns:cc="http://creativecommons.org/ns#"
   xmlns:rdf="http://www.w3.org/1999/02/22-rdf-syntax-ns#"
   xmlns:svg="http://www.w3.org/2000/svg"
   xmlns="http://www.w3.org/2000/svg"
   xmlns:sodipodi="http://sodipodi.sourceforge.net/DTD/sodipodi-0.dtd"
   xmlns:inkscape="http://www.inkscape.org/namespaces/inkscape"
   width="950"
   height="800"
   viewBox="0 0 251.35387 211.66653"
   version="1.1"
   id="svg73"
   inkscape:version="1.0.1 (3bc2e813f5, 2020-09-07)"
   sodipodi:docname="engineer_fix.svg">
  <defs
     id="defs67" />
  <sodipodi:namedview
     id="base"
     pagecolor="#ffffff"
     bordercolor="#666666"
     borderopacity="1.0"
     inkscape:pageopacity="0.0"
     inkscape:pageshadow="2"
     inkscape:zoom="0.35"
     inkscape:cx="971.42857"
     inkscape:cy="560"
     inkscape:document-units="mm"
     inkscape:current-layer="layer1"
     inkscape:document-rotation="0"
     showgrid="false"
     units="px"
     inkscape:window-width="1366"
     inkscape:window-height="705"
     inkscape:window-x="-8"
     inkscape:window-y="-8"
     inkscape:window-maximized="1" />
  <metadata
     id="metadata70">
    <rdf:RDF>
      <cc:Work
         rdf:about="">
        <dc:format>image/svg+xml</dc:format>
        <dc:type
           rdf:resource="http://purl.org/dc/dcmitype/StillImage" />
        <dc:title></dc:title>
      </cc:Work>
    </rdf:RDF>
  </metadata>
  <g
     inkscape:label="Layer 1"
     inkscape:groupmode="layer"
     id="layer1">
    <path
       style="fill:#000000;stroke-width:0.264583"
       d="m 88.493771,203.94141 c -3.891077,-0.66962 -4.226527,-0.92719 -4.028017,-3.09277 0.17033,-1.858 0.4105,-2.23754 1.65109,-2.60923 1.03771,-0.31092 1.05402,-0.33534 1.05402,-1.57911 0,-1.17635 0.082,-1.3305 1.190617,-2.23896 1.49067,-1.22148 1.6144,-2.10985 0.33987,-2.44012 -0.72909,-0.18892 -0.89154,-0.38867 -1.13591,-1.39663 -0.243357,-1.00383 -0.417427,-1.21947 -1.188017,-1.47168 -1.34241,-0.43938 -1.30063,-1.74932 0.0652,-2.04587 0.32774,-0.0712 -0.23754,-0.0822 -1.25619,-0.0245 -1.01865,0.0577 -4.241937,0.23939 -7.162877,0.40376 l -5.310787,0.29886 -1.351217,-0.68471 c -2.02753,-1.02742 -2.02764,-1.09972 -0.005,-3.43799 l 0.885267,-1.02344 3.67808,-0.23926 c 3.406877,-0.22162 4.109297,-0.33042 3.820557,-0.59178 -0.0606,-0.0549 -1.89618,-5.3e-4 -4.078997,0.12093 -9.365647,0.52088 -16.952406,-1.02738 -16.489417,-3.36507 0.229061,-1.15653 5.759503,-3.00229 9.00451,-3.00519 0.57008,-5.3e-4 1.12481,-0.17512 1.32291,-0.41638 0.18764,-0.22852 0.54952,-0.61218 0.80419,-0.85255 0.32462,-0.30642 0.46039,-0.83468 0.45421,-1.76732 l -0.009,-1.33026 -0.51894,0.62287 c -0.28542,0.34258 -0.45303,0.72953 -0.37246,0.8599 0.0806,0.13036 -0.15514,0.23702 -0.52379,0.23702 -0.76868,0 -1.0267,-0.4217 -2.11936,-3.46375 l -0.72144,-2.00855 -1.432577,-0.45158 c -1.9252,-0.60687 -2.10766,-1.00442 -1.6773,-3.65449 0.35871,-2.20883 0.19643,-2.98934 -0.62151,-2.98934 -0.22368,0 -2.949152,2.77871 -6.056583,6.17491 l -5.649889,6.1749 -2.22744,4.25141 -2.227451,4.25141 0.706088,0.60735 c 1.0555,0.9079 0.96783,1.81023 -0.15381,1.58304 -0.773297,-0.15665 -0.954317,-0.0639 -1.797579,0.92045 -0.90383,1.0551 -0.972449,1.08503 -1.900391,0.82881 -0.529479,-0.14619 -1.030248,-0.19826 -1.112829,-0.11568 -0.39057,0.39058 -0.0789,1.33801 0.606991,1.8451 0.59695,0.44136 0.794948,0.84498 0.935958,1.90797 0.16696,1.25854 0.246832,1.37538 1.201182,1.75724 1.14083,0.45647 1.329999,0.87039 1.33546,2.92201 0.003,1.27651 -0.0489,1.38384 -0.862681,1.77 -2.090069,0.9918 -8.578189,1.04828 -10.841519,0.0944 l -0.992192,-0.41817 v -1.71439 c 0,-1.9137 0.24079,-2.31174 1.722571,-2.84756 0.86831,-0.31398 0.923261,-0.40469 0.923261,-1.524 0,-1.08816 0.1148,-1.2979 1.33966,-2.44788 0.736809,-0.69174 1.5626,-1.32848 1.835078,-1.41496 0.696701,-0.22112 0.790602,-0.95842 0.206092,-1.61821 -0.44346,-0.50058 -0.46233,-0.69319 -0.17843,-1.82066 0.300178,-1.19209 0.284189,-1.28599 -0.293132,-1.72146 -0.751728,-0.56703 -0.547669,-1.32205 0.35732,-1.32205 0.90401,0 0.6946,0.38946 6.117342,-11.37709 3.40874,-7.39645 5.793539,-12.17336 7.699122,-15.42179 2.263399,-3.85838 2.76071,-4.89731 2.76071,-5.76731 0,-0.8112 0.167129,-1.21604 0.709488,-1.7187 l 0.709491,-0.65752 -1.103271,-3.62933 c -1.628449,-5.35691 -2.051809,-9.3941 -1.400209,-13.35274 0.226071,-1.37346 0.0537,-1.48486 -1.56133,-1.00923 -0.363799,0.10715 -0.92284,0.10069 -1.242301,-0.0143 -0.31946,-0.11502 -3.457221,-0.27469 -6.972801,-0.35484 -3.515579,-0.0801 -6.519561,-0.22457 -6.675509,-0.32095 -0.155951,-0.0964 -1.18537,-0.19211 -2.287611,-0.21271 -1.321851,-0.0247 -2.341471,-0.19986 -2.995201,-0.51449 -0.691859,-0.33299 -1.272529,-0.42423 -1.923121,-0.30218 -1.053359,0.19762 -3.96294,-1.13554 -4.22184,-1.93442 -0.14941,-0.46103 -1.997419,-1.62072 -2.582658,-1.62072 -0.41134,0 -3.113541,-2.66307 -3.113541,-3.06845 0,-0.33091 -1.892689,-1.42947 -2.462809,-1.42947 -0.45144,0 -2.229311,-1.93956 -2.566101,-2.79949 -0.11859,-0.3028 -0.89121,-0.89811 -1.71693,-1.32292 -1.66202,-0.85506 -2.94807,-2.81322 -3.15949,-4.81072 -0.1262,-1.19231 -0.8228,-3.18856 -1.30988,-3.75373 -0.4806394,-0.5577 -1.2202081,-2.84572 -1.2202081,-3.77498 0,-0.838447 -0.7972594,-2.571245 -1.4213301,-3.089172 C 7.1693821,95.732881 6.7655224,93.57033 6.7659724,91.18434 c 2e-4,-1.053687 -0.10684,-2.107347 -0.23786,-2.341467 -0.23886,-0.42682 0.24282,-4.283097 0.6089997,-4.875597 0.7298804,-1.18097 -0.8692297,-2.91267 -2.3471297,-2.54174 -1.443329,0.36225 -2.5372597,-1.551527 -1.739219,-3.042677 0.54943,-1.02662 0.0579,-2.08376 -0.9689607,-2.08376 -2.00432,0 -2.1497399,-2.968577 -0.17314,-3.534507 0.8365607,-0.23952 1.0381507,-0.63698 0.8912007,-1.75715 -0.2275607,-1.734687 0.37079,-2.910417 1.481169,-2.910417 0.21753,0 0.73599,-0.28649 1.1521296,-0.63665 0.4161407,-0.35016 1.2236204,-0.71555 1.7943901,-0.81198 0.9682914,-0.16359 1.0756714,-0.27437 1.6038211,-1.65451 0.3113297,-0.813537 0.7535184,-1.616247 0.9826484,-1.783787 0.2338194,-0.17098 0.4802294,-0.8692 0.5616294,-1.59145 0.16211,-1.43817 1.43877,-3.736607 2.21177,-3.981947 0.26814,-0.0851 0.834061,-0.57515 1.257611,-1.08898 0.764699,-0.92772 5.06615,-2.729427 6.531549,-2.735817 0.29832,-10e-4 0.66188,-0.12186 0.80792,-0.26789 0.49012,-0.49012 11.6429,-2.37923 14.220141,-2.40868 2.72691,-0.0311 3.7259,0.15455 4.639709,0.86246 0.347041,0.26885 1.016662,0.48882 1.48803,0.48882 1.091512,0 3.134972,1.13484 3.848942,2.137517 0.311549,0.43753 0.793448,0.7729 1.110599,0.7729 0.308131,0 0.831339,0.25468 1.162669,0.56595 1.03632,0.97357 3.841441,0.91372 9.063073,-0.19336 4.694622,-0.99535 4.938262,-0.99974 7.169652,-0.12909 1.28425,0.50109 1.64171,0.53527 3.042707,0.2909 0.87313,-0.1523 2.77813,-0.43967 4.23333,-0.63862 l 2.645837,-0.36171 3.112687,1.6097 3.11267,1.6097 1.47215,-0.30879 c 2.209297,-0.4634 3.957307,-1.63203 3.895057,-2.60402 -0.50794,-7.931394 -0.38194,-9.025904 1.50455,-13.069821 l 1.049147,-2.24896 -0.855417,-0.1739 c -0.47049,-0.0956 -1.62299,-0.30113 -2.56113,-0.45664 -1.0487,-0.17384 -1.79606,-0.4442 -1.94028,-0.7019 -0.12901,-0.23054 -0.572397,-0.803917 -0.985297,-1.274197 l -0.75074,-0.85503 -0.1577,-7.264997 c -0.0867,-3.995737 -0.22273,-8.586424 -0.30221,-10.201504 l -0.14449,-2.936527 1.0658,-1.14297 1.065797,-1.14297 12.839566,-3.09121 12.83957,-3.0912128 2.71388,0.227729 c 14.63277,1.2278751 21.10997,1.8303878 21.59126,2.0084308 0.31453,0.116352 1.04759,0.787236 1.62902,1.490853 l 1.05717,1.2793 5.3e-4,2.81547 c 2.7e-4,1.5485 0.0758,6.089677 0.16776,10.091494 l 0.16727,7.276037 -1.00389,1.022677 c -0.55213,0.56247 -1.50491,1.1934 -2.1173,1.40206 -0.99125,0.33775 -1.13903,0.49837 -1.34672,1.46379 l -0.23328,1.0844 -4.36092,1.160077 c -2.39851,0.63804 -4.47197,1.27113 -4.60769,1.40685 -0.24786,0.24786 1.49941,3.17698 1.8937,3.17458 0.10766,-5.3e-4 0.91011,-0.63264 1.78324,-1.40442 2.59074,-2.29002 7.37633,-4.661407 11.52326,-5.710077 1.67713,-0.42411 2.42172,-0.76254 3.07872,-1.39933 0.79237,-0.76799 0.92213,-0.81021 1.51498,-0.49293 1.16103,0.62137 1.30695,0.31457 2.0861,-4.386037 0.4071,-2.455957 0.98212,-5.252377 1.27784,-6.214247 0.50811,-1.652717 0.51468,-1.826277 0.11953,-3.156877 -0.53874,-1.81413 -0.5204,-2.51627 0.10146,-3.886177 0.527,-1.16093 1.83681,-2.18553 2.79613,-2.1873 0.42414,-7.7e-4 0.75914,-0.51062 1.5875,-2.41612 0.57745,-1.328325 1.30084,-2.581064 1.60754,-2.783865 0.68016,-0.4497577 4.59593,-1.1650701 6.0733,-1.1094391 0.59107,0.02226 1.2916,-0.08092 1.55671,-0.229292 0.30091,-0.168394 0.84157,-0.183934 1.43886,-0.04136 0.52626,0.125621 1.37355,0.300014 1.88287,0.3875397 0.50932,0.08753 1.1219,0.263772 1.36128,0.391658 0.29338,0.1567347 0.54109,0.1049787 0.76,-0.158796 0.44206,-0.5326457 0.48685,-0.5233217 2.77323,0.5771927 1.67358,0.8055527 2.12867,1.1673807 2.70481,2.1504897 0.64306,1.097292 0.71726,1.146382 1.03558,0.685142 0.68394,-0.991038 0.92395,-1.158306 1.66201,-1.158306 0.48524,0 0.89108,-0.21069 1.14671,-0.595313 0.52516,-0.790154 3.04448,-0.842387 3.88627,-0.08057 0.52613,0.47614 0.5821,0.46556 2.45998,-0.465011 3.66581,-1.8165711 7.45385,-2.1695748 9.36267,-0.8724997 2.18124,1.4821907 2.77719,1.1349527 6.53451,-3.8074316 3.38767,-4.45614781 3.61999,-4.54336681 5.66399,-2.126368 l 1.35604,1.6035063 -0.66464,2.4442345 c -0.36554,1.3443291 -0.88502,3.2479065 -1.15439,4.2301725 -0.41661,1.519246 -0.43203,1.785936 -0.10318,1.785936 0.49869,0 0.57557,-0.21774 2.39191,-6.7750072 0.84221,-3.0404611 1.64454,-5.60639291 1.78294,-5.70206991 0.99145,-0.68531094 3.42715,2.77289081 5.37562,7.63226501 l 1.67622,4.1804221 -0.96374,5.293127 c -0.53006,2.91122 -1.05787,5.397077 -1.17292,5.524117 -0.11504,0.12705 -1.72095,0.35807 -3.56867,0.51339 l -3.35952,0.28239 -0.72933,-0.89361 -0.72934,-0.893607 -1.8185,1.078707 c -1.00017,0.59329 -2.3369,1.23344 -2.97051,1.42255 -1.42848,0.42634 -1.4868,0.58007 -1.05183,2.77254 l 0.35176,1.773107 2.0247,1.14721 c 1.18123,0.6693 2.80561,1.32483 3.89925,1.57357 1.03099,0.2345 4.03747,1.304517 6.68107,2.377837 3.63321,1.47511 4.92152,1.88993 5.27762,1.69935 1.1703,-0.62633 4.48993,1.23345 5.00898,2.806197 0.166,0.50296 0.52265,1.03267 0.79257,1.17713 2.75058,1.47206 4.33844,3.2988 6.45464,7.425647 1.15116,2.244877 3.30022,5.986587 4.77574,8.314924 1.47551,2.32833 2.93986,4.656307 3.2541,5.173287 0.31427,0.51696 1.77369,1.9949 3.24317,3.28428 1.84214,1.616377 2.71731,2.572027 2.81843,3.077587 0.0807,0.40328 0.49051,1.03963 0.91079,1.4141 l 0.76416,0.68087 v 3.974237 c 0,4.489567 -0.38316,5.695627 -2.72873,8.589374 -1.47731,1.82255 -1.71779,1.98437 -2.9491,1.98437 -0.87689,0 -1.32539,0.20545 -2.39681,1.09794 -1.74485,1.453437 -9.85463,6.839554 -10.29821,6.839554 -0.66254,0 -0.99069,0.68832 -0.51598,1.08231 0.3707,0.30764 0.40694,0.73708 0.25445,3.013668 -0.249,3.717149 -0.49906,4.630382 -1.51778,5.543102 -0.8406,0.75311 -0.8705,0.85275 -1.03207,3.43959 -0.18284,2.92723 -1.95474,7.51285 -6.14113,15.89316 -2.21188,4.42772 -4.13284,9.68289 -4.58606,12.54611 -0.12363,0.78096 -0.47887,1.49427 -1.07015,2.14875 -1.05777,1.17081 -1.06184,1.24219 -0.2377,4.17104 0.77065,2.7387 2.43338,6.42878 3.82445,8.48754 1.46308,2.16531 3.08066,7.28508 3.60435,11.40803 0.23105,1.81901 0.79184,5.14063 1.24622,7.3814 l 0.82612,4.07411 -0.66428,0.55609 c -0.36535,0.30586 -1.21786,0.93907 -1.89443,1.40713 -1.39909,0.9679 -1.40176,0.99847 -0.38776,4.44063 1.00568,3.41399 1.23412,4.94114 1.07593,7.19312 -0.11937,1.69927 -0.0584,2.36354 0.28285,3.08268 1.21121,2.55247 -0.54296,4.09214 -4.23169,3.71422 -1.828,-0.18728 -1.70425,-0.27862 -2.19565,1.62041 -0.2423,0.93634 -0.4649,1.15831 -1.93129,1.9257 -2.07275,1.0847 -4.31835,1.13132 -11.31472,0.23487 l -4.63022,-0.59327 0.081,-1.04823 c 0.0472,-0.61189 0.28129,-1.21345 0.5622,-1.44511 0.2647,-0.21829 0.55131,-0.69454 0.63694,-1.05834 0.30019,-1.27557 1.5493,-2.30225 3.05253,-2.509 1.1188,-0.15388 1.76549,-0.48341 3.46108,-1.76369 2.57169,-1.94176 2.43938,-1.77708 3.42797,-4.26701 1.00092,-2.52097 1.02319,-2.30821 -0.24146,-2.30821 -0.99954,0 -1.05834,-0.0441 -1.05834,-0.79375 v -0.79375 h -3.57836 -3.57835 l -1.73417,1.09522 -1.73418,1.09523 -3.74945,0.24324 c -5.53807,0.35927 -12.29955,0.18939 -12.61908,-0.31703 -0.3792,-0.60105 -0.30722,-2.27601 0.11279,-2.62459 0.20421,-0.16948 0.67997,-0.93907 1.05725,-1.71021 0.99376,-2.03116 1.25049,-2.18066 4.78996,-2.78937 1.74581,-0.30024 4.58716,-0.95076 6.31409,-1.4456 3.08728,-0.88462 3.16846,-0.92785 4.84758,-2.58111 2.84162,-2.79785 2.86385,-3.16049 0.12629,-2.06062 -1.06241,0.42685 -1.97332,0.77609 -2.02425,0.77609 -0.0509,0 -0.53712,-1.33402 -1.08042,-2.96448 -0.69005,-2.07091 -1.54482,-3.88525 -2.83576,-6.01927 -1.01639,-1.68014 -2.91869,-5.31698 -4.22736,-8.08189 -3.17402,-6.70593 -2.78917,-6.25965 -6.17096,-7.15601 -3.50152,-0.9281 -3.41076,-0.84232 -5.36919,-5.07519 -1.59488,-3.44705 -1.61932,-3.53503 -1.61734,-5.82083 0.005,-5.63733 0.8361,-8.33631 2.43833,-7.9173 0.37929,0.0992 0.47008,-0.0434 0.47008,-0.73828 0,-2.90417 2.58103,-11.23673 4.52587,-14.61131 1.84624,-3.20349 1.85283,-3.26336 0.35921,-3.26336 h -1.23598 l 0.15563,-2.05053 c 0.0856,-1.12778 0.23212,-3.34269 0.3256,-4.922003 l 0.16992,-2.871465 -0.57729,0.30896 c -1.02532,0.548727 -1.02435,0.207237 0.0112,-3.958662 1.55372,-6.250527 1.44265,-6.075407 3.857,-6.081377 2.04912,-0.005 2.11686,-0.12736 1.44404,-2.607157 -0.30249,-1.1149 -0.8603,-4.807337 -1.23957,-8.205407 -0.87029,-7.797294 -0.85684,-7.759284 -5.22344,-14.760371 l -3.64553,-5.844957 -2.17531,-0.16481 c -1.19642,-0.0906 -3.84572,-0.24224 -5.88733,-0.33688 l -3.71201,-0.17208 -1.23499,1.06887 -1.23498,1.06887 -3.12279,-0.66255 c -2.62974,-0.55794 -3.25622,-0.78952 -3.96787,-1.46676 l -0.84507,-0.80421 -1.364,1.49243 c -2.08881,2.2855 -7.8641,5.208067 -13.41903,6.790677 -1.75972,0.50135 -1.89785,0.59076 -1.64434,1.06444 0.18977,0.35459 0.55441,0.51711 1.16016,0.51711 1.06508,0 3.12363,1.098827 3.69652,1.973167 0.22795,0.34789 0.68265,0.71765 1.01045,0.82169 0.95325,0.30255 2.867,2.02646 3.24643,2.9244 0.21259,0.503077 0.79133,1.070307 1.48473,1.455197 1.21305,0.67333 2.85942,3.0319 2.87872,4.124027 0.0122,0.6882 0.53873,1.95276 0.96919,2.32755 0.42971,0.37414 1.37644,3.528037 1.38357,4.609157 0.003,0.49775 0.22873,1.21213 0.501,1.5875 0.57924,0.79859 1.34682,3.705427 1.34,5.074607 -0.003,0.52387 0.19543,1.33962 0.4401,1.81274 0.34849,0.673917 0.41112,1.269907 0.28914,2.751657 -0.16388,1.990691 -0.18701,2.816735 -0.16555,5.911877 0.007,1.047103 -0.12857,2.237723 -0.30185,2.645823 -0.17328,0.40811 -0.32503,1.88353 -0.33723,3.27875 -0.0174,1.9863 -0.12728,2.69714 -0.50658,3.27603 -0.33514,0.51149 -0.43942,1.0165 -0.33841,1.63894 0.21425,1.32025 -0.24711,3.70772 -0.86935,4.49877 -0.2979,0.37871 -0.54164,1.02531 -0.54164,1.43685 0,0.86204 -0.92451,3.35084 -1.46979,3.95672 -0.2033,0.22588 -0.48211,1.17838 -0.61958,2.11665 -0.25508,1.74101 -1.57106,4.57375 -2.24491,4.83232 -0.19473,0.0747 -0.48843,0.66952 -0.65267,1.32176 -0.22434,0.89092 -0.62587,1.48013 -1.61433,2.36883 -0.72365,0.65064 -1.45557,1.48989 -1.62649,1.865 -0.2916,0.63999 -1.86359,1.5045 -2.73573,1.5045 -0.2032,0 -0.60479,0.32308 -0.89243,0.71795 l -0.52298,0.71792 -8.4182,-0.85949 c -5.52163,-0.56377 -8.55839,-0.98065 -8.82565,-1.21156 -0.22411,-0.19364 -0.72571,-0.42755 -1.11468,-0.51982 -0.95916,-0.22751 -2.33549,-1.42487 -2.33549,-2.0318 0,-0.27164 -0.7739,-1.25648 -1.7198,-2.18852 -1.03497,-1.01981 -1.71979,-1.9163 -1.71979,-2.25135 0,-0.3098 -0.26409,-0.69334 -0.59531,-0.86464 -0.88476,-0.45753 -1.76562,-1.60979 -1.77644,-2.32375 -0.005,-0.34575 -0.39645,-1.42956 -0.8694,-2.40849 l -0.85989,-1.77986 -1.41754,-0.17686 c -4.65501,-0.58081 -12.485422,-5.8645 -15.924849,-10.74552 l -1.63875,-2.3256 -1.621937,-0.12237 c -2.30018,-0.17353 -2.31882,-0.15787 -2.22859,1.87202 l 0.0775,1.74332 1.49936,0.29947 c 2.295337,0.45844 3.061107,0.85948 3.378257,1.76926 0.45066,1.29276 0.35024,1.5225 -0.90887,2.07945 -0.65483,0.28968 -1.190617,0.64199 -1.190617,0.78295 0,0.14096 1.131097,3.24776 2.513537,6.90404 1.38245,3.65628 2.51355,6.69054 2.51355,6.74282 0,0.0523 0.40758,0.095 0.905737,0.095 2.236802,0 3.418476,2.14633 5.482764,9.95848 1.694088,6.41124 1.705978,6.66931 0.349667,7.59096 -0.893254,0.60698 -0.908504,0.6079 -3.662229,0.22413 -1.520882,-0.21196 -2.944719,-0.31651 -3.164099,-0.23232 -0.62852,0.24117 -0.88869,2.98458 -0.34049,3.59033 0.50171,0.55436 0.52772,0.89738 0.15176,2.00067 -0.39639,1.16334 1.045517,11.6229 1.617477,11.73306 0.21497,0.0414 3.066406,-1.09162 6.336518,-2.51782 5.242784,-2.28654 5.961514,-2.67257 6.079594,-3.26545 0.4074,-2.04545 3.90499,-3.97422 5.07858,-2.80062 0.19373,0.19373 0.66533,0.43082 1.04797,0.52687 0.41796,0.1049 0.75563,0.41321 0.84577,0.77222 l 0.15004,0.59762 8.74276,0.0886 8.74277,0.0886 v -0.59698 c 0,-0.32834 0.19355,-0.81084 0.4301,-1.07221 0.39912,-0.44103 0.35869,-0.76203 -0.5613,-4.45686 -0.54527,-2.18987 -1.096,-4.04624 -1.22385,-4.12525 -0.74389,-0.45975 0.32953,-1.24486 2.45982,-1.79915 1.98771,-0.5172 2.59868,-0.34687 2.60186,0.72538 0.001,0.45597 0.41808,2.42822 0.92606,4.38276 0.50796,1.95454 0.92357,3.5822 0.92357,3.617 0,0.0348 0.35502,0.14125 0.78893,0.23655 0.87373,0.1919 0.71753,-0.20548 2.1202,5.3943 l 0.82074,3.27656 -0.58613,0.62391 -0.58613,0.62389 2.70244,10.61833 c 3.22188,12.65927 2.89643,12.04543 6.58034,12.41125 2.62637,0.26081 6.91307,1.38142 7.26155,1.89829 1.27808,1.89566 1.23696,2.03566 -0.92707,3.15611 -2.89281,1.49778 -16.18298,2.34109 -21.1711,1.3434 -4.49263,-0.89861 -5.99961,-1.73334 -5.99961,-3.32324 0,-1.08936 5.04259,-2.79901 9.26043,-3.13967 0.88806,-0.0717 1.38958,-0.29502 1.97355,-0.87869 l 0.78294,-0.78254 -2.35008,-9.26042 c -1.29254,-5.09323 -2.45414,-9.64738 -2.58132,-10.12032 -0.12717,-0.47294 -0.40422,-0.85988 -0.61566,-0.85988 -0.21145,0 -0.62257,-0.23813 -0.91361,-0.52918 -0.50133,-0.50133 -0.88194,-0.52916 -7.23613,-0.52916 -9.56024,0 -10.75554,0.12358 -10.75554,1.11204 0,0.89457 -1.305,1.61629 -3.50574,1.93884 -1.60165,0.23475 -1.58575,0.60049 0.0664,1.52845 0.72747,0.40857 1.32266,0.84532 1.32266,0.97055 0,0.12522 0.0684,0.40586 0.15195,0.62366 0.0906,0.23613 -0.2414,0.83139 -0.82251,1.47459 l -0.97443,1.0786 1.11855,4.94255 c 0.88748,3.92152 1.25129,5.08345 1.76112,5.62465 0.47509,0.50431 0.59871,0.85451 0.47428,1.34357 -0.0926,0.36379 -0.22877,1.16119 -0.3027,1.77198 l -0.13441,1.11051 1.5469,0.0801 1.54688,0.0801 -0.02,2.11667 c -0.0125,1.32835 -0.17996,2.48619 -0.44952,3.10885 l -0.42953,0.99219 -3.65153,-0.003 c -2.00834,-0.002 -4.10954,-0.0786 -4.66935,-0.17107 l -1.01783,-0.16816 0.17776,-1.48258 c 0.24085,-2.00881 0.90626,-4.33088 1.33985,-4.67567 0.69976,-0.55645 0.55254,-5.14341 -0.28091,-8.75236 l -0.74229,-3.21421 -1.08146,-0.1716 c -0.74924,-0.11889 -1.40657,-0.48339 -2.13979,-1.18655 -1.39883,-1.34148 -5.921185,-2.21437 -6.882779,-1.32848 -0.29301,0.26996 -0.957354,0.66823 -1.476261,0.88505 -1.665442,0.69587 -1.639232,0.52097 -1.121272,7.4801 0.43322,5.82058 0.51383,6.34744 1.047052,6.84232 0.929404,0.8626 0.899084,1.49908 -0.0839,1.76015 -0.751902,0.1997 -0.864022,0.35633 -1.025382,1.43239 -0.11525,0.76853 -0.33758,1.25767 -0.611,1.34422 -0.2364,0.0748 -0.7677,0.26273 -1.180677,0.41756 l -0.75084,0.2815 1.610747,1.52326 c 1.50775,1.42585 1.61074,1.59951 1.61074,2.71588 0,1.13067 0.0486,1.20866 0.935409,1.50134 1.334721,0.4405 1.754571,1.22049 1.658231,3.08061 l -0.0801,1.5465 -1.455211,0.49058 c -1.411389,0.4758 -6.133976,0.81349 -7.672926,0.54866 z m 24.029339,-17.77684 c 0.0843,-0.59067 -0.55026,-0.8588 -0.85717,-0.3622 -0.0783,0.12673 -0.53184,0.32278 -1.00781,0.43567 l -0.8654,0.20525 0.92604,0.19363 c 1.35377,0.28305 1.70987,0.18982 1.80434,-0.47235 z m -25.600866,-4.6184 c -0.18847,-1.63671 -0.34311,-1.95113 -0.81588,-1.65894 -0.38104,0.23549 -0.11691,1.86114 0.44375,2.73113 0.53296,0.82699 0.57641,0.70179 0.37213,-1.07219 z m -6.006617,-7.02056 c 0.0902,-0.54571 0.16531,-1.72246 0.16691,-2.61502 l 0.003,-1.62282 -1.71856,-0.18404 c -1.08693,-0.1164 -2.05936,-0.0716 -2.645837,0.12199 l -0.92728,0.30603 v 1.70758 c 0,1.25401 0.10276,1.747 0.3868,1.856 0.21276,0.0816 0.45674,0.36872 0.54219,0.63796 0.154427,0.48658 0.760917,0.63271 3.071297,0.74003 0.91169,0.0423 0.96542,-0.003 1.12157,-0.94771 z m 24.511483,-7.59847 c 0,-0.24584 -0.15394,-0.32951 -0.41906,-0.22777 -0.33741,0.12948 -0.35029,0.20441 -0.0661,0.38453 0.46993,0.29789 0.48521,0.29295 0.48521,-0.15676 z m -26.563173,-5.01151 c 0.0787,-0.20514 -0.0471,-0.74092 -0.27968,-1.19062 -0.38657,-0.74754 -0.53564,-0.81763 -1.73894,-0.81763 H 75.52919 v 1.03993 c 0,1.13697 0.15972,1.23213 2.191117,1.30529 0.64337,0.0232 1.05159,-0.0971 1.14363,-0.33697 z m 4.823367,-0.38798 c 0.35082,-0.22238 -0.19209,-2.06005 -2.061567,-6.97808 -0.85197,-2.24128 -1.17673,-1.96816 -0.99501,0.83681 0.2377,3.66886 1.849167,6.90665 3.056577,6.14127 z m -24.599408,-2.45369 c 0.935231,-1.06785 0.964531,-1.81242 0.0713,-1.81242 -0.317532,0 -0.612,0.276 -0.776311,0.72761 -0.145601,0.40018 -0.45764,1.1768 -0.69342,1.72583 -0.529781,1.2336 -0.0513,1.0143 1.39841,-0.64102 z m 9.740437,-13.95403 c -0.0343,-1.1605 0.0723,-1.68942 0.41758,-2.072 0.52908,-0.58626 0.37282,-0.86764 -0.48181,-0.86764 -0.89301,0 -1.72176,3.59578 -0.99602,4.32153 0.68424,0.68425 1.10507,0.13575 1.06025,-1.38189 z M 58.648775,134.63085 c 0,-0.53358 -0.146709,-1.10706 -0.32603,-1.27441 -0.255781,-0.23871 -0.289981,-0.11187 -0.15875,0.5887 0.092,0.49113 0.16728,1.13604 0.16728,1.43316 0,0.29709 0.0714,0.46875 0.15875,0.38144 0.0873,-0.0873 0.15875,-0.59531 0.15875,-1.12889 z m 13.990265,-8.77574 c 0.13438,-0.35343 0.24433,-1.2812 0.24433,-2.06169 0,-1.33211 0.42686,-2.25064 1.04593,-2.25064 0.11791,0 0.29324,-1.04179 0.38959,-2.31509 0.0964,-1.27331 0.24303,-2.82112 0.32593,-3.43959 0.19231,-1.43484 -0.25001,-1.48699 -1.51112,-0.17818 -0.50148,0.52045 -1.51829,1.23468 -2.259567,1.58718 -2.60508,1.23876 -2.60929,1.14279 0.39015,8.9047 0.332037,0.85922 0.999847,0.73939 1.374757,-0.24669 z m 55.52628,-1.86349 c 2.49325,-3.07181 3.83467,-5.95623 4.65568,-10.01101 0.37381,-1.84622 0.64366,-3.75779 0.59967,-4.24792 l -0.08,-0.89113 -5.28227,3.18827 c -2.90524,1.75354 -5.32277,3.22877 -5.37226,3.27826 -0.28834,0.28833 0.80681,6.07286 1.4084,7.4392 0.92577,2.10261 1.67718,3.29342 2.07816,3.29342 0.18122,0 1.07791,-0.92208 1.99263,-2.04909 z m -44.698626,0.63757 c 0,-0.17708 0.53578,-1.1829 1.19062,-2.23518 1.19751,-1.92425 1.48685,-2.80036 0.84329,-2.5534 -0.54271,0.20825 -2.30746,3.40447 -2.4855,4.50161 -0.1154,0.71116 -0.0747,0.93418 0.14571,0.79797 0.16823,-0.10397 0.30588,-0.33392 0.30588,-0.511 z m -35.08383,-4.91421 c 5.04674,-1.78127 8.524262,-3.72695 12.210662,-6.83187 3.70182,-3.11791 7.223237,-6.77709 9.062927,-9.41746 l 1.13872,-1.63431 -0.77976,-0.31998 c -1.06828,-0.43835 -1.90217,-1.896933 -2.0823,-3.642154 -0.0828,-0.801964 -0.28275,-1.561931 -0.44439,-1.688788 -0.44234,-0.34712 -5.771087,-0.871397 -6.946576,-0.683427 -0.84895,0.13575 -1.118722,0.0629 -1.553001,-0.419557 l -0.525579,-0.583857 -0.132292,1.016574 c -0.0971,0.746517 -0.308009,1.103314 -0.79375,1.343061 -0.53008,0.26163 -0.687729,0.576157 -0.79375,1.583431 -0.156149,1.483684 -0.408469,1.607627 -3.35621,1.648527 -2.783571,0.0386 -3.258372,-0.207193 -3.258372,-1.686857 0,-0.810074 -0.111979,-1.197161 -0.346308,-1.197161 -0.871892,0 -1.314942,-0.719377 -1.47593,-2.396408 L 48.144813,93.11575 46.205415,92.82473 c -2.04964,-0.30757 -2.415461,-0.57457 -2.422171,-1.767737 -0.004,-0.74269 0.75079,-1.08834 3.63397,-1.66375 l 0.859891,-0.17162 v -3.799217 -3.79921 l -1.124472,-0.15438 c -0.618468,-0.0849 -3.684328,-0.44455 -6.813028,-0.79924 l -5.688542,-0.644887 -0.992641,-1.10359 c -1.122598,-1.24806 -0.719458,-1.23643 -5.35736,-0.1547 -2.040109,0.47584 -2.839349,0.55778 -3.491158,0.3579 -0.8487,-0.26025 -4.384591,0.16741 -5.11465,0.61862 -0.45993,0.28425 -0.35226,7.740124 0.164229,11.372844 1.56834,11.030747 4.327851,16.364997 11.63428,22.489517 3.634812,3.04685 6.825372,4.8114 10.823732,5.9861 3.605278,1.05921 3.425028,1.05554 6.065369,0.1236 z m 34.95154,-4.5222 c 0.46481,-0.51361 0.46213,-0.52915 -0.0913,-0.52915 -0.39378,0 -0.57017,0.1637 -0.57017,0.52915 0,0.29106 0.0411,0.52918 0.0913,0.52918 0.0502,0 0.30679,-0.23812 0.57018,-0.52918 z M 80.961327,89.222423 c 2.937357,-2.60103 3.402007,-3.13879 2.703807,-3.12922 -0.9797,0.0134 -4.304977,1.091 -4.799037,1.55515 -0.34585,0.32491 -1.54368,0.7625 -3.013777,1.10099 -2.2465,0.51723 -2.4398,0.61226 -2.4398,1.19949 0,0.40715 0.15247,0.63775 0.42166,0.63775 0.23189,0 0.48227,0.23188 0.55638,0.5153 0.13172,0.503667 0.36765,0.564917 2.932747,0.761407 0.42529,0.0326 1.49949,-0.747197 3.63802,-2.640867 z m -9.665464,1.10789 c 0,-0.33818 -0.13015,-0.47093 -0.37107,-0.37848 -0.20408,0.0783 -1.26412,-0.22939 -2.35564,-0.68378 -1.09152,-0.45441 -2.26399,-0.80136 -2.605497,-0.77101 -1.17913,0.10478 -1.48232,-0.0301 -1.87093,-0.8325 -0.30029,-0.62006 -0.32885,-1.03471 -0.12406,-1.80193 0.40691,-1.524517 0.0836,-2.419777 -0.87383,-2.419777 -1.82877,0 -2.182392,-2.6879 -0.46408,-3.527517 0.97347,-0.47566 1.31467,-0.97421 0.66146,-0.96647 -0.28401,0.003 -1.19163,0.19615 -4.365631,0.92735 -0.58932,0.13576 -0.59531,0.18354 -0.59531,4.744477 0,4.162197 0.0447,4.619847 0.463021,4.736877 0.254659,0.0712 2.78474,0.32506 5.6224,0.564 2.837647,0.23894 5.457027,0.53319 5.820827,0.65388 0.99834,0.3312 1.05834,0.31731 1.05834,-0.24512 z M 75.52057,72.366982 c 0.99967,0.34849 6.023517,-0.67997 6.634164,-1.35812 0.74214,-0.82418 3.47924,-1.638207 7.599257,-2.260107 1.6947,-0.2558 1.8673,-0.82355 0.88714,-2.91811 -0.4391,-0.93833 -1.31024,-2.336457 -1.93588,-3.106967 -0.62564,-0.77051 -1.430607,-2.17955 -1.788827,-3.1312 l -0.6513,-1.730287 -1.57478,1.01783 c -3.159177,2.041877 -4.254307,2.053567 -7.808507,0.0833 l -2.748407,-1.52356 -2.14639,0.32394 c -1.180517,0.17817 -2.731417,0.40317 -3.446457,0.49999 -1.47894,0.20027 -1.78458,0.68327 -0.47384,0.74882 1.81793,0.0909 3.14992,1.871787 2.88383,3.855697 -0.14325,1.06799 -1.05216,2.318397 -1.68521,2.318397 -0.27609,0 -0.35075,0.86694 -0.35075,4.07278 v 4.072787 l 2.915837,-0.61754 c 2.24633,-0.47575 3.09363,-0.55558 3.69012,-0.34765 z m 24.350286,-7.312677 c 3.266944,-1.091397 6.132134,-1.984367 6.367064,-1.984367 0.23494,0 0.55861,-0.2885 0.71927,-0.6411 0.16065,-0.3526 0.56672,-0.68003 0.90236,-0.7276 0.98921,-0.14022 1.9084,-2.19 1.35845,-3.029337 -0.38368,-0.58556 -0.37477,-0.7307 0.11423,-1.86036 l 0.53038,-1.22524 -0.63649,-1.43918 c -0.35006,-0.791557 -1.77218,-3.626787 -3.16026,-6.300494 l -2.52379,-4.861307 -1.48513,-0.67992 c -2.570684,-1.17689 -2.523754,-1.1859 -3.657288,0.70165 -2.992182,4.982477 -7.789491,11.255561 -9.752871,12.753111 -0.52071,0.39717 -0.94676,0.92778 -0.94676,1.17914 0,0.93755 1.82015,4.227677 2.88267,5.210767 0.59735,0.55268 1.08608,1.09144 1.08608,1.19725 0,0.51591 1.677287,3.691367 1.949787,3.691367 0.17183,0 2.985356,-0.89297 6.252298,-1.98438 z M 25.203903,62.817478 c 1.27665,-0.28437 2.555311,-0.50732 2.841471,-0.49544 0.286149,0.0119 1.620341,-0.2317 2.964868,-0.5413 1.34453,-0.30958 2.803041,-0.56289 3.241151,-0.56289 1.309091,0 0.952631,-0.70395 -0.989391,-1.953897 -4.913659,-3.16262 -6.544459,-2.99161 -9.192718,0.963947 -1.263601,1.88736 -1.782321,3.10663 -1.321671,3.10663 0.0743,0 1.179631,-0.23268 2.45629,-0.51705 z m 109.459687,-2.91359 c 5.19721,-1.461627 10.49944,-4.177917 11.91225,-6.102524 l 0.96205,-1.3106 -1.87186,-2.18489 c -2.15797,-2.518847 -2.12208,-2.370627 -1.07593,-4.443027 0.99287,-1.96685 0.88216,-2.595987 -0.75485,-4.290297 -1.24103,-1.28447 -1.78391,-1.47677 -2.73379,-0.96841 -0.46015,0.24627 -0.6465,0.15936 -1.27657,-0.59531 -1.53094,-1.833737 -6.75902,-0.81466 -11.24673,2.19224 -4.40942,2.954437 -4.32071,2.774207 -2.67051,5.425917 1.90862,3.066947 2.27363,3.931737 2.27363,5.386747 0,2.702447 -1.45047,4.764537 -3.35141,4.764537 -1.06314,0 -1.1711,0.0693 -1.68875,1.08397 -0.6591,1.291937 -0.7792,1.156907 1.336,1.502087 2.78879,0.4551 7.72426,0.23201 10.18647,-0.46044 z M 86.557854,55.611991 c -0.0845,-0.21106 -0.14716,-0.14837 -0.15986,0.15987 -0.0115,0.2789 0.0511,0.43517 0.13897,0.34725 0.0879,-0.0879 0.0973,-0.31612 0.0209,-0.50712 z m -0.26197,-1.46671 c -0.0671,-0.257417 -0.12638,-0.110857 -0.13178,0.3257 -0.005,0.43656 0.0495,0.64719 0.12197,0.46805 0.0725,-0.17913 0.0769,-0.53631 0.01,-0.79375 z m 3.591207,-2.604337 c 2.1578,-2.48006 4.582737,-5.830727 6.487063,-8.963554 l 1.133514,-1.86473 -2.72101,-0.30586 c -4.820277,-0.54182 -5.089247,-0.51217 -5.771877,0.63658 -1.19788,2.01586 -2.110197,5.997097 -2.145357,9.362134 -0.0473,4.527457 0.0383,4.559677 3.017667,1.13543 z m 26.758269,-4.941317 -0.68225,-1.38906 -1.28659,-0.002 -1.28659,-0.002 0.68657,1.19226 c 0.37761,0.65575 0.73613,1.28156 0.7967,1.39072 0.0606,0.10913 0.63761,0.19842 1.28228,0.19842 h 1.17214 l -0.68226,-1.38906 z M 169.324,36.248653 c 3.71556,-0.49361 5.75424,-1.51478 5.79346,-2.90193 0.024,-0.848127 -0.05,-0.968737 -0.59407,-0.968597 -0.65563,1.7e-4 -2.15668,-1.38717 -2.15668,-1.9933 0,-0.64305 -0.74661,-1.10712 -2.06192,-1.2816 -0.79214,-0.10508 -1.48952,-0.37875 -1.77831,-0.69787 -0.61436,-0.67886 -0.82437,-0.66246 -1.88593,0.14723 -1.3921,1.0618 -1.48638,1.41087 -1.16198,4.30164 0.36957,3.293437 0.47793,3.758627 0.87391,3.751657 0.17914,-0.003 1.51632,-0.16391 2.97152,-0.35723 z m 30.03021,-16.305781 c 0,-0.14552 -0.20835,-0.26276 -0.46302,-0.26053 -0.3957,0.003 -0.40531,0.0413 -0.0661,0.26053 0.49931,0.32269 0.52915,0.32269 0.52915,0 z"
       id="path56" />
  </g>
</svg>
