<?xml version="1.0" encoding="UTF-8" standalone="no"?>
<!-- Created with Inkscape (http://www.inkscape.org/) -->

<svg
   xmlns:dc="http://purl.org/dc/elements/1.1/"
   xmlns:cc="http://creativecommons.org/ns#"
   xmlns:rdf="http://www.w3.org/1999/02/22-rdf-syntax-ns#"
   xmlns:svg="http://www.w3.org/2000/svg"
   xmlns="http://www.w3.org/2000/svg"
   xmlns:sodipodi="http://sodipodi.sourceforge.net/DTD/sodipodi-0.dtd"
   xmlns:inkscape="http://www.inkscape.org/namespaces/inkscape"
   width="195"
   height="195"
   viewBox="0 0 51.593748 51.593751"
   version="1.1"
   id="svg847"
   inkscape:version="0.92.4 (5da689c313, 2019-01-14)"
   sodipodi:docname="github_dark.svg">
  <defs
     id="defs841" />
  <sodipodi:namedview
     id="base"
     pagecolor="#ffffff"
     bordercolor="#666666"
     borderopacity="1.0"
     inkscape:pageopacity="0.0"
     inkscape:pageshadow="2"
     inkscape:zoom="1.4"
     inkscape:cx="209.23466"
     inkscape:cy="76.307766"
     inkscape:document-units="mm"
     inkscape:current-layer="layer1"
     showgrid="false"
     units="px"
     inkscape:window-width="1366"
     inkscape:window-height="705"
     inkscape:window-x="-8"
     inkscape:window-y="-8"
     inkscape:window-maximized="1" />
  <metadata
     id="metadata844">
    <rdf:RDF>
      <cc:Work
         rdf:about="">
        <dc:format>image/svg+xml</dc:format>
        <dc:type
           rdf:resource="http://purl.org/dc/dcmitype/StillImage" />
        <dc:title></dc:title>
      </cc:Work>
    </rdf:RDF>
  </metadata>
  <g
     inkscape:label="Camada 1"
     inkscape:groupmode="layer"
     id="layer1"
     transform="translate(0,-245.40623)">
    <path
       style="opacity:1;fill:#000000;fill-opacity:1;stroke:none;stroke-width:0.12114316;stroke-opacity:1"
       d="m 32.786007,295.32626 c -0.140708,-0.0552 -0.372386,-0.24855 -0.514842,-0.42966 -0.253188,-0.32187 -0.259067,-0.42381 -0.260821,-4.52269 0.132601,-2.69562 0.052,-5.48261 -1.45931,-7.51836 0.480192,-0.10274 0.982708,-0.18232 1.40054,-0.24806 6.65675,-1.04391 10.117246,-5.45569 9.835312,-12.53901 -0.09806,-2.46432 -0.601279,-3.98597 -1.870827,-5.65745 l -0.616558,-0.81173 c 0.50084,-2.37609 0.340614,-4.50104 -0.29635,-6.67487 -2.695604,0.007 -5.356272,1.50082 -7.127568,2.56961 -2.091642,-0.52764 -4.350792,-0.75927 -6.165926,-0.76873 -2.541986,0.0147 -4.161686,0.28715 -6.386809,0.75772 -2.801533,-1.37708 -4.312289,-2.55857 -7.142878,-2.55859 -0.641904,2.2181 -0.79034,4.8278 -0.265048,6.67351 -1.703357,2.17027 -2.4131569,4.83276 -2.4338019,6.98123 -0.0018,1.7034 0.2608218,3.80013 0.6232989,4.97569 0.886045,2.87355 2.993887,5.06679 5.977398,6.21955 1.542432,0.50303 3.072745,0.87199 4.652414,1.08777 -0.7113,0.85836 -1.157905,1.97981 -1.372046,2.92009 -0.06151,0.27894 -0.186742,0.36376 -0.828424,0.56102 -2.147422,0.66016 -3.787658,0.35445 -5.245097,-0.97757 -0.359267,-0.32834 -0.842001,-0.90626 -1.07272,-1.28426 -0.996058,-1.63181 -2.6196081,-2.70895 -4.0846439,-2.70991 -1.6034,-7.9e-4 -1.591846,0.74932 0.02846,1.84967 0.948482,0.6441 1.5417168,1.42029 2.3479499,3.07211 0.96066,1.9682 1.939287,2.82877 3.883225,3.41477 1.640678,0.2104 3.316103,0.34597 4.914525,-0.0523 -0.02465,1.69557 -0.04931,3.39115 -0.07396,5.08672 l -0.339925,0.29212 c -0.493955,0.42453 -1.077043,0.36914 -2.539093,-0.19868 -5.148603,-1.9996 -9.3798939,-5.79747 -11.9785049,-10.11414 -3.47633696,-5.95641 -4.421059,-12.03903 -2.965769,-18.53791 1.673404,-7.20994 6.241317,-13.39461 13.5114879,-16.97455 6.673487,-3.11814 14.379261,-3.18311 20.968979,-0.17679 8.935498,3.70308 14.728277,13.11712 14.800461,22.73185 0.06172,9.343 -6.023269,20.50794 -17.903129,23.56183 z"
       id="path21"
       inkscape:connector-curvature="0"
       sodipodi:nodetypes="cccccccccccccccccccccccccccccscccccc" />
  </g>
</svg>
